<?xml version="1.0" encoding="UTF-8"?>
<!DOCTYPE svg PUBLIC "-//W3C//DTD SVG 1.1//EN" "http://www.w3.org/Graphics/SVG/1.1/DTD/svg11.dtd">
<!-- Creator: CorelDRAW X8 -->
<svg xmlns="http://www.w3.org/2000/svg" xml:space="preserve" width="297mm" height="210mm" version="1.1" style="shape-rendering:geometricPrecision; text-rendering:geometricPrecision; image-rendering:optimizeQuality; fill-rule:evenodd; clip-rule:evenodd"
viewBox="0 0 29700 21000"
 xmlns:xlink="http://www.w3.org/1999/xlink">
 <defs>
  <style type="text/css">
   <![CDATA[
    .fil1 {fill:none}
    .fil2 {fill:black}
    .fil0 {fill:black;fill-rule:nonzero}
   ]]>
  </style>
 </defs>
 <g id="Camada_x0020_1">
  <metadata id="CorelCorpID_0Corel-Layer"/>
  <g id="_2381184925216">
   <path class="fil0" d="M4398 12801l2133 -2065c180,-175 325,-332 438,-472 112,-139 197,-264 255,-376 59,-112 98,-216 118,-310 20,-94 30,-184 30,-269 0,-144 -30,-279 -90,-407 -61,-128 -146,-241 -256,-340 -110,-99 -241,-176 -394,-232 -152,-56 -321,-84 -505,-84 -345,0 -639,89 -881,269 -242,179 -437,406 -585,680l-128 -74c157,-292 368,-533 632,-724 265,-191 588,-286 969,-286 207,0 395,32 565,94 171,63 317,148 438,256 121,108 215,233 282,377 68,143 101,296 101,457l0 14c0,103 -10,205 -30,306 -20,101 -63,211 -128,330 -65,119 -157,251 -276,397 -119,146 -274,313 -467,501l-1979 1911 2948 0 0 135 -3190 0 0 -88zm5125 -4488l-882 397 -60 -128 963 -437 127 0 0 4744 -148 0 0 -4576z"/>
   <path class="fil0" d="M12942 10692l454 0 0 -1242 492 0 0 -398 -1438 0 0 398 492 0 0 1242zm803 0l478 0 117 -293 633 0 119 293 488 0 -699 -1652 -438 0 -698 1652zm729 -646l185 -467 183 467 -368 0zm1265 646l1249 0 0 -398 -795 0 0 -1242 -454 0 0 1640zm1443 0l1331 0 0 -386 -881 0 0 -260 787 0 0 -359 -787 0 0 -248 869 0 0 -387 -1319 0 0 1640zm1563 0l449 0 0 -899 701 899 398 0 0 -1640 -450 0 0 867 -674 -867 -424 0 0 1640zm2239 0l455 0 0 -1242 492 0 0 -398 -1439 0 0 398 492 0 0 1242zm1900 33c506,0 886,-382 886,-853l0 -5c0,-470 -375,-848 -881,-848 -506,0 -886,382 -886,853l0 5c0,471 375,848 881,848zm5 -410c-248,0 -419,-206 -419,-443l0 -5c0,-236 166,-438 414,-438 251,0 422,207 422,443l0 5c0,236 -166,438 -417,438zm1750 405c398,0 663,-199 663,-534l0 -5c0,-307 -234,-428 -612,-510 -227,-52 -283,-85 -283,-160l0 -4c0,-59 54,-106 164,-106 145,0 309,56 459,162l227 -321c-178,-143 -396,-218 -674,-218 -394,0 -635,220 -635,525l0 5c0,337 269,435 618,515 223,51 277,89 277,157l0 5c0,70 -66,112 -188,112 -189,0 -370,-68 -531,-197l-253 302c201,181 477,272 768,272z"/>
   <path class="fil0" d="M13195 11946c55,0 104,-9 149,-27 44,-17 81,-41 112,-72 31,-30 55,-66 72,-107 17,-41 25,-86 25,-133l0 -2c0,-47 -8,-91 -25,-133 -17,-41 -41,-77 -72,-108 -31,-31 -68,-55 -112,-74 -45,-18 -94,-27 -149,-27l-204 0 0 683 204 0zm-263 -736l263 0c61,0 118,10 169,30 52,20 96,48 133,83 37,35 66,77 86,124 21,48 31,100 31,155l0 3c0,55 -10,107 -31,155 -20,48 -49,90 -86,125 -37,35 -81,63 -133,83 -51,21 -108,31 -169,31l-263 0 0 -789zm1590 515l-207 -456 -209 456 416 0zm-234 -520l56 0 367 794 -64 0 -100 -221 -465 0 -101 221 -60 0 367 -794zm1628 447c36,0 70,-5 100,-14 30,-9 56,-22 77,-39 21,-17 38,-37 50,-62 12,-24 18,-50 18,-80l0 -2c0,-32 -6,-60 -17,-84 -12,-23 -28,-43 -49,-59 -21,-16 -46,-28 -76,-36 -29,-9 -61,-13 -97,-13l-223 0 0 389 217 0zm-275 -442l286 0c43,0 83,6 119,17 35,11 66,26 92,47 26,21 46,46 60,75 15,30 22,64 22,102l0 3c0,41 -8,77 -25,109 -17,31 -39,58 -67,79 -28,21 -61,37 -98,47 -37,11 -76,16 -118,16l-213 0 0 294 -58 0 0 -789zm1238 801c-47,0 -91,-7 -130,-22 -39,-14 -74,-36 -103,-65 -28,-29 -51,-64 -67,-107 -15,-42 -23,-90 -23,-146l0 -461 58 0 0 455c0,94 24,167 71,217 47,51 112,76 196,76 40,0 76,-6 108,-18 33,-12 60,-30 83,-54 23,-24 41,-54 53,-90 13,-36 19,-78 19,-125l0 -461 58 0 0 454c0,57 -8,106 -23,150 -16,43 -38,79 -67,108 -28,30 -62,52 -102,67 -39,15 -83,22 -131,22zm1065 -65c67,0 121,-15 161,-44 40,-29 60,-68 60,-118l0 -2c0,-49 -21,-87 -62,-114 -41,-26 -100,-40 -178,-40l-267 0 0 318 286 0zm-26 -371c29,0 56,-3 81,-10 25,-8 46,-18 64,-32 18,-13 32,-30 42,-51 11,-20 16,-44 16,-70l0 -2c0,-44 -17,-79 -51,-106 -34,-27 -83,-41 -146,-41l-266 0 0 312 260 0zm-319 -365l325 0c45,0 85,7 120,19 35,12 63,29 85,51 33,34 50,76 50,125l0 2c0,27 -4,50 -12,71 -8,20 -18,38 -30,53 -13,15 -28,28 -44,38 -16,10 -32,18 -47,25 23,6 45,14 67,24 22,10 41,23 57,38 16,16 29,34 38,54 10,21 15,45 15,72l0 2c0,33 -7,63 -20,89 -14,27 -33,50 -57,68 -25,18 -55,32 -89,43 -35,10 -73,15 -116,15l-342 0 0 -789zm988 0l59 0 0 736 463 0 0 53 -522 0 0 -789zm880 0l59 0 0 789 -59 0 0 -789zm833 802c-56,0 -108,-10 -157,-31 -48,-21 -89,-50 -124,-86 -35,-37 -62,-80 -82,-129 -19,-50 -29,-103 -29,-159l0 -2c0,-56 10,-109 30,-158 20,-50 47,-93 82,-130 35,-37 77,-67 125,-88 48,-21 100,-32 157,-32 36,0 67,3 96,9 29,6 55,15 79,26 25,11 48,24 69,40 22,15 42,32 63,51l-42 43c-17,-17 -35,-32 -54,-46 -19,-15 -39,-27 -60,-37 -22,-10 -45,-18 -70,-24 -25,-6 -53,-9 -82,-9 -47,0 -91,9 -132,27 -40,18 -75,43 -105,75 -30,32 -53,69 -70,112 -17,43 -25,89 -25,138l0 3c0,49 9,96 26,139 17,43 41,80 70,112 30,32 65,57 105,76 41,18 85,27 132,27 57,0 107,-10 149,-31 42,-21 83,-52 123,-91l39 38c-21,20 -42,39 -65,56 -22,17 -45,31 -71,43 -25,12 -52,21 -81,28 -30,7 -61,10 -96,10zm657 -802l59 0 0 789 -59 0 0 -789zm738 736c55,0 104,-9 149,-27 44,-17 82,-41 112,-72 31,-30 55,-66 72,-107 17,-41 25,-86 25,-133l0 -2c0,-47 -8,-91 -25,-133 -17,-41 -41,-77 -72,-108 -30,-31 -68,-55 -112,-74 -45,-18 -94,-27 -149,-27l-204 0 0 683 204 0zm-262 -736l262 0c62,0 118,10 170,30 51,20 95,48 133,83 37,35 65,77 86,124 20,48 30,100 30,155l0 3c0,55 -10,107 -30,155 -21,48 -49,90 -86,125 -38,35 -82,63 -133,83 -52,21 -108,31 -170,31l-262 0 0 -789zm1589 515l-207 -456 -208 456 415 0zm-234 -520l56 0 368 794 -65 0 -100 -221 -465 0 -100 221 -61 0 367 -794zm1028 741c54,0 104,-9 148,-27 45,-17 82,-41 113,-72 31,-30 55,-66 71,-107 17,-41 26,-86 26,-133l0 -2c0,-47 -9,-91 -26,-133 -16,-41 -40,-77 -71,-108 -31,-31 -68,-55 -113,-74 -44,-18 -94,-27 -148,-27l-204 0 0 683 204 0zm-263 -736l263 0c61,0 118,10 169,30 52,20 96,48 133,83 37,35 66,77 86,124 20,48 31,100 31,155l0 3c0,55 -11,107 -31,155 -20,48 -49,90 -86,125 -37,35 -81,63 -133,83 -51,21 -108,31 -169,31l-263 0 0 -789zm1056 0l561 0 0 53 -503 0 0 312 452 0 0 53 -452 0 0 318 508 0 0 53 -566 0 0 -789z"/>
   <line class="fil1" x1="10509" y1="9216" x2="10509" y2= "9216" />
   <line class="fil1" x1="10526" y1="9915" x2="10526" y2= "9915" />
   <path class="fil2" d="M10938 10205c342,0 620,-278 620,-620 0,-343 -278,-621 -620,-621 -343,0 -621,278 -621,621 0,342 278,620 621,620zm-204 -1048c142,-48 321,-61 338,-63 17,-2 91,-15 82,-44 -3,-12 -77,-79 -230,-84 172,-9 371,110 358,178 -7,42 -236,102 -283,119 -65,24 -95,64 -30,119 49,42 67,49 230,120 47,21 258,118 245,249 -12,129 -142,207 -303,261 -142,48 -321,60 -338,63 -17,2 -91,15 -82,44 4,11 77,78 230,84 -171,9 -371,-111 -358,-178 8,-42 237,-102 283,-119 65,-24 95,-64 31,-119 -49,-42 -68,-49 -231,-120 -72,-32 -256,-123 -245,-249 11,-130 143,-207 303,-261z"/>
  </g>
 </g>
</svg>
